<?xml version="1.0" encoding="UTF-8"?>
<svg id="Livello_1" xmlns="http://www.w3.org/2000/svg" version="1.1" viewBox="0 0 595.28 841.89">
  <!-- Generator: Adobe Illustrator 29.1.0, SVG Export Plug-In . SVG Version: 2.1.0 Build 142)  -->
  <defs>
    <style>
      .st0, .st1 {
        fill: none;
        stroke: #fff;
        stroke-miterlimit: 10;
      }

      .st1 {
        stroke-width: 4px;
      }
    </style>
  </defs>
  <path class="st0" d="M1043.19,364.97v384h-384v-384h384ZM840.93,383.15c-130.23,7.87-206.15,153.02-137.14,264.7,68.95,111.59,233.05,109.09,298.36-4.67,68.83-119.91-23.98-268.32-161.22-260.03ZM952.42,395.78c-3.65.75-4.93,4.37-4.27,7.71.55,2.82,12.97,10.62,16.05,13.14,5.05,4.12,9.75,8.74,14.63,13.06,4.86,2.01,10.24-1.93,8.67-7.12-1.22-4.02-23.43-21.62-28.04-24.4-2.3-1.38-4.09-3-7.03-2.4ZM990.59,429.47c-7.18,1.5-5.2,13.36,2.65,11.72,7.18-1.5,5.2-13.36-2.65-11.72ZM721.85,689.61c5.14-4.34-.8-13.62-7.7-9.56-6.82,4.01,1.01,15.2,7.7,9.56ZM726.35,689.99c-4.53,1.03-4.52,7.25-1.66,10.32,4.39,4.72,23.22,18.4,29.06,21.09,5.42,2.5,10.66-.14,9.48-6.46-.61-3.27-11.3-8.72-14.45-11.02-3.34-2.43-16.57-13.71-18.91-14.05-1.17-.17-2.37-.13-3.52.13Z"/>
  <path class="st1" d="M300.74,234.07c137.24-8.29,230.05,140.11,161.22,260.03-65.31,113.77-229.4,116.27-298.36,4.67-69.01-111.68,6.91-256.83,137.14-264.7ZM301.49,246.05c-120.23,7.26-190.76,139.85-129.2,244.03,61.58,104.21,212.4,105.29,276.38,2.7,69.46-111.38-16.86-254.61-147.18-246.73Z"/>
  <path class="st1" d="M412.23,246.71c2.94-.61,4.73,1.01,7.03,2.4,4.61,2.78,26.83,20.38,28.04,24.4,1.57,5.19-3.81,9.13-8.67,7.12-4.88-4.32-9.58-8.94-14.63-13.06-3.09-2.52-15.5-10.32-16.05-13.14-.66-3.35.63-6.96,4.27-7.71Z"/>
  <path class="st1" d="M186.16,540.91c1.15-.26,2.36-.3,3.52-.13,2.34.35,15.57,11.62,18.91,14.05,3.16,2.3,13.84,7.75,14.45,11.02,1.18,6.32-4.06,8.96-9.48,6.46-5.83-2.68-24.67-16.37-29.06-21.09-2.86-3.07-2.87-9.29,1.66-10.32Z"/>
  <path class="st1" d="M181.66,540.53c-6.68,5.64-14.51-5.54-7.7-9.56,6.89-4.06,12.84,5.22,7.7,9.56Z"/>
  <path class="st1" d="M450.4,280.39c7.85-1.64,9.83,10.22,2.65,11.72-7.85,1.64-9.83-10.22-2.65-11.72Z"/>
  <path class="st1" d="M301.49,246.05c130.32-7.87,216.64,135.35,147.18,246.73-63.98,102.59-214.8,101.51-276.38-2.7-61.56-104.19,8.97-236.77,129.2-244.03ZM422.19,383.53c-15.97-79.32-110.63-116.3-176.92-68.69-66.09,47.46-62.87,146.76,6.29,189.55,66.65,41.24,155.24,3.39,170.64-72.88,14.59-.68,32,3.71,40.99-11.04,5.32-8.73,5.24-17.76-.29-26.36-9.22-14.37-26.17-9.82-40.7-10.58Z"/>
  <path class="st1" d="M422.19,383.53c14.54.76,31.48-3.79,40.7,10.58,5.52,8.6,5.61,17.63.29,26.36-8.99,14.75-26.4,10.36-40.99,11.04-15.39,76.27-103.99,114.13-170.64,72.88-69.16-42.79-72.38-142.09-6.29-189.55,66.29-47.61,160.95-10.63,176.92,68.69ZM303.74,305.94c-79.38,5.79-121.43,97.01-74.56,161.7,42.22,58.28,130.53,54.51,168.59-6.29,44.22-70.64-11.35-161.44-94.03-155.41ZM424.4,419.49h21.33c4.92,0,9.53-7.63,9.42-12.35-.11-4.43-4.85-11.6-9.42-11.6h-21.33c1.09,7.95,1.08,16.03,0,23.95Z"/>
  <path class="st1" d="M303.74,305.94c82.68-6.03,138.25,84.77,94.03,155.41-38.06,60.8-126.37,64.57-168.59,6.29-46.86-64.68-4.82-155.91,74.56-161.7ZM243.52,475.37c49.54,49.31,134.23,30.45,157.88-35.09,28.57-79.18-51.43-154.11-128.71-120.47-61.2,26.64-76.69,108.27-29.18,155.56Z"/>
  <path class="st1" d="M424.4,419.49c1.08-7.92,1.09-16.01,0-23.95h21.33c4.56,0,9.31,7.17,9.42,11.6.11,4.72-4.49,12.35-9.42,12.35h-21.33Z"/>
  <path class="st1" d="M243.52,475.37c-47.51-47.3-32.02-128.92,29.18-155.56,77.27-33.64,157.28,41.3,128.71,120.47-23.65,65.55-108.35,84.4-157.88,35.09ZM303.74,323.9c-56.49,5.02-91.88,64.56-69.36,116.82,27.2,63.11,115.62,68.24,149.73,8.47,33.62-58.92-13.15-131.25-80.37-125.28Z"/>
  <path class="st1" d="M303.74,323.9c67.22-5.97,114,66.36,80.37,125.28-34.11,59.77-122.53,54.64-149.73-8.47-22.52-52.25,12.86-111.8,69.36-116.82ZM312.11,460.66c4.44-11.7,12.63-19.89,22.11-27.67,10.21-8.38,21.21-12.89,28.37-24.78,6.89-11.45,8.83-24.08,1.49-35.8-11.77-18.8-36.81-12.05-52.45-2.46-19.25-12.01-50.56-16.39-56.94,11.96-7.23,32.11,31.55,44.35,47.68,64.19,3.54,4.35,5.49,9.25,8.19,14.1l1.54.47Z"/>
  <path class="st1" d="M312.11,460.66l-1.54-.47c-2.71-4.86-4.66-9.75-8.19-14.1-16.12-19.84-54.91-32.08-47.68-64.19,6.38-28.35,37.68-23.97,56.94-11.96,15.64-9.59,40.68-16.34,52.45,2.46,7.34,11.73,5.4,24.36-1.49,35.8-7.16,11.89-18.16,16.4-28.37,24.78-9.48,7.78-17.68,15.98-22.11,27.67ZM278.24,372.51c-7.1,1.13-12.53,9.01-12.52,15.91.03,17.52,21.22,27.2,32.53,37.07,4.52,3.94,8.59,8.44,12.85,12.65,6.16-5.23,11.56-11.33,17.88-16.39,8.29-6.64,17.24-10.14,23.12-19.54,4.95-7.91,7.26-17.39.46-25.04-10.27-11.55-31.15.53-41.43,7.01-7.73-5.67-23.29-13.21-32.89-11.68Z"/>
  <path class="st1" d="M278.24,372.51c9.6-1.53,25.16,6.01,32.89,11.68,10.28-6.48,31.16-18.56,41.43-7.01,6.8,7.65,4.49,17.12-.46,25.04-5.88,9.4-14.83,12.91-23.12,19.54-6.32,5.06-11.73,11.16-17.88,16.39-4.26-4.21-8.33-8.71-12.85-12.65-11.31-9.87-32.5-19.55-32.53-37.07-.01-6.91,5.42-14.78,12.52-15.91Z"/>
</svg>