<?xml version="1.0" encoding="UTF-8"?>
<svg id="Livello_1" xmlns="http://www.w3.org/2000/svg" version="1.1" viewBox="0 0 595.28 540.39">
  <!-- Generator: Adobe Illustrator 29.1.0, SVG Export Plug-In . SVG Version: 2.1.0 Build 142)  -->
  <defs>
    <style>
      .st0 {
        fill: none;
        stroke: #007361;
        stroke-miterlimit: 10;
        stroke-width: 8.95px;
      }
    </style>
  </defs>
  <path class="st0" d="M434.45,212.54h33.06c20.13,0,42.53,20.24,47.81,39.04,3.28,11.66,3.42,47.75.35,59.46-4.54,17.33-26.59,39.68-45.2,39.68h-36.02c2.69,48.23-18.77,94.56-59.9,120.22-40.19,25.07-109.13,21.92-155.74,18.94-63.42-4.07-114.42-56.74-118-119.86-3.63-63.91,2.83-131.22.03-195.49.98-8.27,14.17-13.22,21.07-16.44,83.78-39.06,201.29-38.78,285.87-2.26,6.57,2.84,26.68,10.54,26.68,18.72v38ZM122.68,181.07l-.1,192.83c8.46,60.09,50.66,92.8,109.99,95.3,21.92.92,48.24.93,70.16,0,60.22-2.56,102.95-37.14,110-98.26l.07-186.58c.08-1.23-.22-2.01-1.03-2.92-1.91-2.13-21.99-9.84-26.15-11.35-71.31-25.97-156.76-26.68-228.71-2.66-11.69,3.9-22.8,9.13-34.22,13.64ZM434.45,329.99h31.09c11.58,0,26.71-12.56,29.43-23.87,1.74-7.21,1.57-36.57.68-44.73-1.2-11.11-15.83-27.14-27.15-27.14h-34.05v95.74Z"/>
  <path class="st0" d="M180.46,86.86c-6.4,6.02-16.68,1.98-18.18-6.31-.88-4.87-.96-26.4,0-31.12,2.34-11.53,19.55-11.31,21.42.82.78,5.04.83,25.53.01,30.48-.27,1.62-2.1,5.05-3.25,6.13Z"/>
  <path class="st0" d="M265.44,27.17c4.25-.75,9.57,2.07,11.52,5.81,2.27,4.35,2.24,28.18,1.12,33.54-2.63,12.52-19.71,12.61-21.3-.53-.65-5.43-.76-25.4.25-30.39.76-3.74,4.63-7.77,8.42-8.43Z"/>
  <path class="st0" d="M360.2,41c5.87-.85,11.4,3.27,12.1,9.16.63,5.31.81,27.74-.23,32.38-2.05,9.15-18.99,10.2-20.54-2.73-.62-5.12-.78-26.92.23-31.4.76-3.36,5.09-6.93,8.44-7.42Z"/>
  <path class="st0" d="M122.68,181.07c11.42-4.51,22.53-9.74,34.22-13.64,71.95-24.02,157.4-23.31,228.71,2.66,4.16,1.51,24.24,9.22,26.15,11.35.82.91,1.12,1.69,1.03,2.92l-.07,186.58c-7.05,61.12-49.77,95.69-110,98.26-21.92.93-48.24.92-70.16,0-59.34-2.5-101.54-35.21-109.99-95.3l.1-192.83Z"/>
  <path class="st0" d="M434.45,329.99v-95.74h34.05c11.32,0,25.94,16.03,27.15,27.14.88,8.16,1.06,37.52-.68,44.73-2.72,11.31-17.85,23.87-29.43,23.87h-31.09Z"/>
</svg>